<svg data-v-29081953="" xmlns="http://www.w3.org/2000/svg" viewBox="0 0 300 300"><defs data-v-29081953=""></defs><rect data-v-29081953="" fill="transparent" x="0" y="0" width="300px" height="300px" class="logo-background-square"></rect><defs data-v-29081953=""></defs><g data-v-29081953="" id="51ce8dae-89e4-4a6b-b661-e32b4bd38b05" fill="#000000" transform="matrix(1.7602408581189906,0,0,1.7602408581189906,97.67058004009745,123.11929074139569)"><path d="M0.77 15.40L4.30 15.40C7.15 15.40 8.53 14.03 8.53 11.42L8.53 8.74C8.53 6.10 7.15 4.73 4.27 4.73L0.77 4.73ZM4.34 7.20C5.15 7.20 5.60 7.55 5.60 8.48L5.60 11.63C5.60 12.60 5.15 12.94 4.33 12.94L3.44 12.94L3.44 7.20ZM12.52 10.08C12.52 9.30 12.77 9.06 13.38 9.06C14 9.06 14.25 9.30 14.25 10.08L14.25 12.17C14.25 12.95 14 13.19 13.38 13.19C12.77 13.19 12.52 12.95 12.52 12.17ZM13.38 6.68C10.95 6.68 9.79 7.85 9.79 10.12L9.79 12.12C9.79 14.39 10.95 15.57 13.38 15.57C15.82 15.57 16.98 14.39 16.98 12.12L16.98 10.12C16.98 7.85 15.82 6.68 13.38 6.68ZM18.24 4.59L18.24 15.40L20.80 15.40L20.92 14.91C21.27 15.27 21.80 15.57 22.71 15.57C24.09 15.57 25.42 14.45 25.42 12.26L25.42 10.12C25.42 7.85 24.42 6.68 22.71 6.68C21.98 6.68 21.41 6.85 20.96 7.21L20.96 4.59ZM20.96 10.08C20.96 9.30 21.21 9.06 21.83 9.06C22.44 9.06 22.69 9.30 22.69 10.08L22.69 12.17C22.69 12.91 22.40 13.19 21.83 13.19C21.28 13.19 20.96 12.92 20.96 12.18ZM26.68 6.85L26.68 15.40L29.40 15.40L29.40 11.17C29.40 9.83 30.13 9.49 30.87 9.49C31.09 9.49 31.32 9.52 31.53 9.56L31.53 6.75C31.40 6.73 31.28 6.72 31.15 6.72C30.37 6.72 29.61 7.08 29.22 7.66L29.04 6.85ZM35.22 6.85L32.51 6.85L32.51 15.40L35.22 15.40ZM35.22 3.61L32.51 3.61L32.51 6.02L35.22 6.02ZM43.69 9.77C43.69 7.62 42.80 6.68 41.16 6.68C40.26 6.68 39.58 6.92 39.12 7.45L38.98 6.85L36.62 6.85L36.62 15.40L39.34 15.40L39.34 10.11C39.34 9.32 39.62 9.06 40.17 9.06C40.74 9.06 40.98 9.34 40.98 10.08L40.98 15.40L43.69 15.40ZM45.14 15.40L48.66 15.40C51.52 15.40 52.89 14.03 52.89 11.42L52.89 8.74C52.89 6.10 51.52 4.73 48.64 4.73L45.14 4.73ZM48.71 7.20C49.52 7.20 49.97 7.55 49.97 8.48L49.97 11.63C49.97 12.60 49.52 12.94 48.69 12.94L47.81 12.94L47.81 7.20ZM56.88 10.08C56.88 9.30 57.13 9.06 57.75 9.06C58.37 9.06 58.62 9.30 58.62 10.08L58.62 12.17C58.62 12.95 58.37 13.19 57.75 13.19C57.13 13.19 56.88 12.95 56.88 12.17ZM57.75 6.68C55.31 6.68 54.15 7.85 54.15 10.12L54.15 12.12C54.15 14.39 55.31 15.57 57.75 15.57C60.19 15.57 61.35 14.39 61.35 12.12L61.35 10.12C61.35 7.85 60.19 6.68 57.75 6.68ZM62.61 4.59L62.61 15.40L65.17 15.40L65.28 14.91C65.63 15.27 66.16 15.57 67.07 15.57C68.46 15.57 69.79 14.45 69.79 12.26L69.79 10.12C69.79 7.85 68.78 6.68 67.07 6.68C66.35 6.68 65.77 6.85 65.32 7.21L65.32 4.59ZM65.32 10.08C65.32 9.30 65.58 9.06 66.19 9.06C66.81 9.06 67.06 9.30 67.06 10.08L67.06 12.17C67.06 12.91 66.77 13.19 66.19 13.19C65.65 13.19 65.32 12.92 65.32 12.18ZM71.05 6.85L71.05 15.40L73.77 15.40L73.77 11.17C73.77 9.83 74.49 9.49 75.24 9.49C75.46 9.49 75.68 9.52 75.89 9.56L75.89 6.75C75.77 6.73 75.64 6.72 75.52 6.72C74.73 6.72 73.98 7.08 73.58 7.66L73.40 6.85ZM81.27 12.60C81.20 13.15 81.00 13.52 80.26 13.52C79.65 13.52 79.34 13.12 79.34 12.42L79.34 11.82L83.83 11.82L83.83 10.02C83.83 7.71 82.63 6.68 80.28 6.68C77.84 6.68 76.66 8.02 76.66 9.98L76.66 12.08C76.66 14.49 77.84 15.57 80.28 15.57C82.77 15.57 83.68 14.50 83.76 12.60ZM80.30 8.68C80.92 8.68 81.27 8.97 81.27 9.74L81.27 10.11L79.34 10.11L79.34 9.79C79.34 8.99 79.65 8.68 80.30 8.68ZM84.39 6.85L86.60 15.40L90.02 15.40L92.22 6.85L89.29 6.85L88.33 12.75L87.36 6.85Z"></path></g><defs data-v-29081953=""><linearGradient data-v-29081953="" gradientTransform="rotate(25)" id="a84b2464-a973-4b32-88d9-6e8e36556914" x1="0%" y1="0%" x2="100%" y2="0%"><stop data-v-29081953="" offset="0%" stop-color="#006678" stop-opacity="1"></stop><stop data-v-29081953="" offset="100%" stop-color="#4FA8FF" stop-opacity="1"></stop></linearGradient></defs><g data-v-29081953="" id="a4516948-2092-4055-a224-1a327155a0cb" stroke="none" fill="url(#a84b2464-a973-4b32-88d9-6e8e36556914)" transform="matrix(0.9962330845787281,0,0,0.9962330845787281,39.103390188251076,126.0904074546135)"><path d="M16 47.1c-1 0-1.9-.2-2.7-.7-5.3-3-4.8-15.2 1.1-27.8C19.4 8.2 26.6.9 32 .9c1 0 1.9.2 2.7.7 5.3 3 4.8 15.2-1.1 27.8-5 10.4-12.2 17.7-17.6 17.7zM32 2.8c-4.6 0-11.3 7-15.8 16.7-5.9 12.4-5.7 23.1-1.9 25.3.5.3 1.1.4 1.7.4 4.6 0 11.3-7 15.8-16.7 5.9-12.4 5.7-23.1 1.9-25.3-.5-.3-1.1-.4-1.7-.4z"></path><path d="M32 47.1c-5.4 0-12.6-7.3-17.6-17.8C8.5 16.8 8 4.6 13.3 1.6c.8-.5 1.7-.7 2.7-.7 5.4 0 12.6 7.3 17.6 17.8 5.9 12.6 6.4 24.8 1.1 27.8-.8.4-1.7.6-2.7.6zM16 2.8c-.6 0-1.2.1-1.7.4-3.8 2.2-4 12.9 1.9 25.3 4.6 9.7 11.2 16.7 15.8 16.7.6 0 1.2-.1 1.7-.4 3.8-2.2 4-12.9-1.9-25.3C27.3 9.8 20.6 2.8 16 2.8z"></path><path d="M24 35.7C11 35.7.9 30.6.9 24S11 12.3 24 12.3 47.1 17.4 47.1 24 37 35.7 24 35.7zm0-21.5c-11.5 0-21.2 4.5-21.2 9.8s9.7 9.8 21.2 9.8 21.2-4.5 21.2-9.8-9.7-9.8-21.2-9.8z"></path><circle cx="42.5" cy="17.7" r="3.2"></circle><circle cx="24" cy="24" r="6"></circle><g><circle cx="9.9" cy="9.2" r="3.2"></circle></g><g><circle cx="37.2" cy="39.3" r="3.2"></circle></g></g><defs data-v-29081953=""></defs><g data-v-29081953="" id="4ad2067c-52cd-4387-a4a4-e19cd6f335a8" fill="#000000" transform="matrix(0.8319501264286854,0,0,0.8319501264286854,98.7514219146443,155.77580427213306)"><path d="M2.24 6.19L2.24 14.03L3.47 14.03L3.47 14.03Q5.27 14.03 6.37 12.95L6.37 12.95L6.37 12.95Q7.46 11.87 7.46 10.12L7.46 10.12L7.46 10.12Q7.46 8.20 6.41 7.18L6.41 7.18L6.41 7.18Q5.36 6.16 3.42 6.16L3.42 6.16L3.42 6.16Q2.43 6.16 2.24 6.19L2.24 6.19ZM3.28 14.40L0.33 14.40L0.39 14.11L1.54 13.90L1.54 6.51L0.37 6.36L0.44 6.12L0.44 6.12Q2.52 5.79 3.68 5.79L3.68 5.79L3.68 5.79Q4.64 5.79 5.42 6.03L5.42 6.03L5.42 6.03Q6.19 6.26 6.71 6.66L6.71 6.66L6.71 6.66Q7.22 7.05 7.56 7.59L7.56 7.59L7.56 7.59Q7.90 8.13 8.05 8.71L8.05 8.71L8.05 8.71Q8.20 9.29 8.20 9.92L8.20 9.92L8.20 9.92Q8.20 10.64 8.03 11.28L8.03 11.28L8.03 11.28Q7.86 11.93 7.48 12.50L7.48 12.50L7.48 12.50Q7.10 13.08 6.53 13.49L6.53 13.49L6.53 13.49Q5.97 13.91 5.14 14.15L5.14 14.15L5.14 14.15Q4.31 14.40 3.28 14.40L3.28 14.40ZM17.14 6.36L15.92 6.18L15.97 5.89L22.16 5.89L21.95 8.07L21.64 8.03L21.51 6.24L17.86 6.24L17.86 9.89L20.15 9.89L20.40 8.94L20.77 8.89L20.54 11.55L20.19 11.61L20.08 10.26L17.86 10.26L17.86 14.03L21.70 14.03L22.20 12.19L22.48 12.26L22.28 14.40L15.94 14.40L15.98 14.11L17.14 13.90L17.14 6.36ZM30.26 8.09L30.19 5.89L37.25 5.89L37.01 8.16L36.67 8.12L36.55 6.24L34.02 6.24L34.02 13.90L35.23 14.08L35.15 14.40L32.05 14.40L32.09 14.11L33.28 13.90L33.28 6.24L30.85 6.24L30.61 8.15L30.26 8.09ZM49.02 6.98L47.65 10.75L50.34 10.75L49.02 6.98ZM47.70 14.40L44.97 14.40L45.01 14.11L45.98 13.90L48.97 5.82L49.33 5.73L52.17 13.95L53.07 14.08L53.02 14.39L50.22 14.39L50.29 14.10L51.42 13.90L50.47 11.13L47.52 11.13L46.50 13.95L47.76 14.08L47.70 14.40ZM61.93 6.33L60.74 6.16L60.79 5.89L63.91 5.89L63.86 6.16L62.67 6.32L62.67 13.95L63.98 14.08L63.92 14.40L60.81 14.40L60.85 14.11L61.93 13.90L61.93 6.33ZM77.86 14.40L71.71 14.40L71.74 14.11L72.90 13.90L72.90 6.34L71.72 6.17L71.75 5.90L74.86 5.90L74.83 6.17L73.63 6.32L73.63 14.03L77.25 14.03L77.78 12.09L78.08 12.14L77.86 14.40ZM85.80 13.60L85.80 13.60L86.01 11.66L86.34 11.71L86.53 13.21L86.53 13.21Q86.75 13.64 87.28 13.89L87.28 13.89L87.28 13.89Q87.81 14.14 88.42 14.14L88.42 14.14L88.42 14.14Q89.10 14.14 89.58 13.74L89.58 13.74L89.58 13.74Q90.06 13.33 90.06 12.61L90.06 12.61L90.06 12.61Q90.06 12.20 89.84 11.83L89.84 11.83L89.84 11.83Q89.63 11.46 89.28 11.18L89.28 11.18L89.28 11.18Q88.94 10.90 88.52 10.63L88.52 10.63L88.52 10.63Q88.09 10.36 87.68 10.07L87.68 10.07L87.68 10.07Q87.26 9.79 86.92 9.48L86.92 9.48L86.92 9.48Q86.57 9.17 86.35 8.75L86.35 8.75L86.35 8.75Q86.14 8.33 86.14 7.84L86.14 7.84L86.14 7.84Q86.14 6.88 86.83 6.29L86.83 6.29L86.83 6.29Q87.53 5.71 88.41 5.71L88.41 5.71L88.41 5.71Q89.00 5.71 89.54 5.90L89.54 5.90L89.54 5.90Q90.08 6.09 90.41 6.46L90.41 6.46L90.18 8.58L89.87 8.53L89.68 6.87L89.68 6.87Q89.50 6.54 89.08 6.32L89.08 6.32L89.08 6.32Q88.66 6.10 88.23 6.10L88.23 6.10L88.23 6.10Q87.64 6.10 87.22 6.48L87.22 6.48L87.22 6.48Q86.81 6.87 86.81 7.52L86.81 7.52L86.81 7.52Q86.81 7.96 87.03 8.35L87.03 8.35L87.03 8.35Q87.25 8.74 87.61 9.03L87.61 9.03L87.61 9.03Q87.96 9.32 88.38 9.61L88.38 9.61L88.38 9.61Q88.81 9.89 89.23 10.17L89.23 10.17L89.23 10.17Q89.66 10.45 90.01 10.75L90.01 10.75L90.01 10.75Q90.36 11.05 90.59 11.45L90.59 11.45L90.59 11.45Q90.81 11.85 90.81 12.29L90.81 12.29L90.81 12.29Q90.81 13.28 90.06 13.93L90.06 13.93L90.06 13.93Q89.30 14.57 88.06 14.57L88.06 14.57L88.06 14.57Q87.35 14.57 86.75 14.30L86.75 14.30L86.75 14.30Q86.15 14.03 85.80 13.60ZM111.24 14.40L108.41 14.40L108.45 14.17L109.59 13.96L110.15 6.36L108.90 6.14L108.94 5.89L111.13 5.89L111.61 7.18L113.76 12.84L116.20 6.88L116.62 5.89L118.85 5.89L118.82 6.14L117.64 6.34L118.02 14.01L119.25 14.12L119.23 14.40L116.07 14.40L116.12 14.17L117.28 13.96L116.89 6.41L113.72 13.99L113.37 14.05L110.58 6.53L110.04 14.01L111.28 14.12L111.24 14.40ZM131.00 6.98L129.64 10.75L132.32 10.75L131.00 6.98ZM129.68 14.40L126.96 14.40L126.99 14.11L127.96 13.90L130.96 5.82L131.32 5.73L134.16 13.95L135.06 14.08L135.00 14.39L132.21 14.39L132.27 14.10L133.40 13.90L132.45 11.13L129.50 11.13L128.49 13.95L129.75 14.08L129.68 14.40ZM142.81 8.09L142.74 5.89L149.80 5.89L149.56 8.16L149.22 8.12L149.11 6.24L146.57 6.24L146.57 13.90L147.78 14.08L147.70 14.40L144.61 14.40L144.64 14.11L145.84 13.90L145.84 6.24L143.40 6.24L143.17 8.15L142.81 8.09ZM157.58 8.09L157.51 5.89L164.57 5.89L164.33 8.16L163.99 8.12L163.87 6.24L161.33 6.24L161.33 13.90L162.54 14.08L162.47 14.40L159.37 14.40L159.41 14.11L160.60 13.90L160.60 6.24L158.17 6.24L157.93 8.15L157.58 8.09ZM173.50 6.36L172.28 6.18L172.33 5.89L178.52 5.89L178.31 8.07L177.99 8.03L177.86 6.24L174.21 6.24L174.21 9.89L176.50 9.89L176.76 8.94L177.13 8.89L176.90 11.55L176.55 11.61L176.44 10.26L174.21 10.26L174.21 14.03L178.06 14.03L178.56 12.19L178.84 12.26L178.64 14.40L172.30 14.40L172.34 14.11L173.50 13.90L173.50 6.36ZM188.37 6.18L188.37 10.11L189.92 10.11L189.92 10.11Q190.61 9.86 191.06 9.28L191.06 9.28L191.06 9.28Q191.52 8.70 191.52 8.02L191.52 8.02L191.52 8.02Q191.52 7.11 190.90 6.63L190.90 6.63L190.90 6.63Q190.29 6.15 189.20 6.15L189.20 6.15L188.37 6.18ZM189.75 14.40L186.55 14.40L186.60 14.11L187.67 13.90L187.67 6.51L186.57 6.37L186.63 6.13L186.63 6.13Q188.46 5.83 189.54 5.83L189.54 5.83L189.54 5.83Q190.31 5.83 190.91 6.05L190.91 6.05L190.91 6.05Q191.52 6.27 191.90 6.73L191.90 6.73L191.90 6.73Q192.27 7.19 192.27 7.83L192.27 7.83L192.27 7.83Q192.27 8.57 191.85 9.14L191.85 9.14L191.85 9.14Q191.42 9.72 190.39 10.23L190.39 10.23L190.39 10.23L191.71 12.19L191.71 12.19Q192.42 13.23 192.76 13.58L192.76 13.58L192.76 13.58Q193.11 13.92 193.49 14.05L193.49 14.05L193.82 14.16L193.78 14.42L193.78 14.42Q193.48 14.52 193.14 14.52L193.14 14.52L193.14 14.52Q192.86 14.52 192.60 14.40L192.60 14.40L192.60 14.40Q192.35 14.28 192.11 14.01L192.11 14.01L192.11 14.01Q191.86 13.75 191.68 13.48L191.68 13.48L191.68 13.48Q191.50 13.22 191.22 12.77L191.22 12.77L189.83 10.49L188.37 10.49L188.37 13.95L189.81 14.08L189.75 14.40Z"></path></g></svg>